<?xml version="1.0" encoding="UTF-8"?>
<svg xmlns="http://www.w3.org/2000/svg" xmlns:xlink="http://www.w3.org/1999/xlink" width="30px" height="30px" viewBox="0 0 30 30" version="1.1">
<g id="surface1">
<path style="fill-rule:nonzero;fill:rgb(32.54902%,30.588235%,66.27451%);fill-opacity:1;stroke-width:1;stroke-linecap:butt;stroke-linejoin:miter;stroke:rgb(32.54902%,30.588235%,66.27451%);stroke-opacity:1;stroke-miterlimit:4;" d="M 18.8 16 L 24.3 10.5 C 25.1 9.7 25.1 8.5 24.3 7.7 C 24 7.3 23.5 7 23 7 C 22.5 7 22 7.2 21.6 7.6 L 16 13.2 L 10.5 7.7 C 9.7 6.9 8.4 6.9 7.7 7.7 C 7.3 8 7 8.5 7 9.1 C 7 9.7 7.2 10.1 7.6 10.5 L 13.1 16 L 7.6 21.5 C 7.3 21.9 7 22.4 7 23 C 7 23.5 7.2 24 7.6 24.4 C 8 24.8 8.5 25 9 25 C 9.5 25 10 24.8 10.4 24.4 L 15.9 18.9 L 21.4 24.4 C 22.2 25.2 23.5 25.2 24.2 24.4 C 25 23.6 25 22.3 24.2 21.6 Z M 18.8 16 " transform="matrix(0.9375,0,0,0.9375,0,0)"/>
</g>
</svg>
