<!DOCTYPE svg PUBLIC "-//W3C//DTD SVG 1.1//EN" "http://www.w3.org/Graphics/SVG/1.1/DTD/svg11.dtd">

<!-- Uploaded to: SVG Repo, www.svgrepo.com, Transformed by: SVG Repo Mixer Tools -->
<svg height="64px" width="64px" version="1.1" id="_x32_" xmlns="http://www.w3.org/2000/svg" viewBox="0 0 512 512"
     xml:space="preserve" fill="" stroke="">

<g id="SVGRepo_bgCarrier" stroke-width="0"/>

<g id="SVGRepo_tracerCarrier" stroke-linecap="round" stroke-linejoin="round"/>

<g id="SVGRepo_iconCarrier"> <style type="text/css"> .st0{fill:#98A9CA;} </style> <g> <path class="st0" d="M105.351,449.758c0,14.358,11.64,25.99,25.998,25.99c14.357,0,25.998-11.631,25.998-25.99 c0-14.357-25.998-51.033-25.998-51.033S105.351,435.401,105.351,449.758z"/> <path class="st0" d="M231.812,449.758c0,14.358,11.648,25.99,25.998,25.99c14.367,0,25.998-11.631,25.998-25.99 c0-14.357-25.998-51.033-25.998-51.033S231.812,435.401,231.812,449.758z"/> <path class="st0" d="M358.29,449.758c0,14.358,11.631,25.99,25.997,25.99c14.35,0,25.998-11.631,25.998-25.99 c0-14.357-25.998-51.033-25.998-51.033S358.29,435.401,358.29,449.758z"/> <path class="st0" d="M481.475,202.698c-15.885-15.902-37.02-26.616-60.503-29.59c-2.048-36.764-17.641-69.999-42.059-94.39 c-26.201-26.219-62.524-42.474-102.518-42.466c-37.453-0.008-71.728,14.262-97.427,37.612 c-22.115,20.068-37.946,46.939-44.363,77.279c-6.212-1.032-12.575-1.615-19.061-1.615c-31.867-0.017-60.83,12.946-81.701,33.834 C12.955,204.225,0,233.197,0,265.064c0,31.858,12.955,60.838,33.843,81.7c20.871,20.888,49.834,33.843,81.701,33.834h292.243 c28.734,0.009,54.873-11.684,73.688-30.516C500.316,331.259,512,305.129,512,276.395C512,247.652,500.316,221.513,481.475,202.698z M462.246,330.852c-13.979,13.962-33.146,22.556-54.458,22.566H115.544c-24.436-0.009-46.446-9.866-62.471-25.884 c-16.018-16.035-25.875-38.026-25.884-62.47c0.009-24.445,9.866-46.446,25.884-62.48c16.026-16.008,38.035-25.874,62.471-25.874 c9.115,0,17.879,1.377,26.13,3.927l15.849,4.898l1.694-16.494c3.036-29.652,17.085-56.038,38.017-75.047 c20.951-19.008,48.642-30.552,79.159-30.56c32.564,0.008,61.933,13.166,83.297,34.504c21.339,21.356,34.496,50.726,34.496,83.307 c0,1.147-0.044,2.489-0.106,4.05l-0.512,14.623l14.34-0.548c21.258,0.044,40.382,8.614,54.334,22.556 c13.961,13.979,22.556,33.146,22.574,54.468C484.802,297.707,476.207,316.875,462.246,330.852z"/> </g> </g>

</svg>