<?xml version="1.0" encoding="UTF-8"?>
<svg xmlns="http://www.w3.org/2000/svg" width="30px" height="30px" viewBox="0 0 30 30" version="1.1">
<g id="surface1">
<path style=" stroke:none;fill-rule:evenodd;fill:rgb(20.392157%,18.823529%,45.098039%);fill-opacity:1;" d="M 15.960938 28.859375 C 15.910156 28.917969 15.859375 28.96875 15.800781 29.019531 C 15.269531 29.460938 14.480469 29.390625 14.039062 28.859375 C 7.179688 20.621094 3.75 14.601562 3.75 10.796875 C 3.75 4.835938 9.035156 0 15 0 C 20.964844 0 26.25 4.835938 26.25 10.796875 C 26.25 14.601562 22.820312 20.621094 15.960938 28.859375 Z M 23.75 10.796875 C 23.75 6.328125 19.699219 2.5 15 2.5 C 10.300781 2.5 6.25 6.328125 6.25 10.796875 C 6.25 13.660156 9.148438 18.894531 15 26.089844 C 20.851562 18.894531 23.75 13.660156 23.75 10.796875 Z M 15 13.75 C 13.621094 13.75 12.5 12.628906 12.5 11.25 C 12.5 9.871094 13.621094 8.75 15 8.75 C 16.378906 8.75 17.5 9.871094 17.5 11.25 C 17.5 12.628906 16.378906 13.75 15 13.75 Z M 15 13.75 "/>
</g>
</svg>
